<svg width="84" height="69" viewBox="0 0 84 69" fill="none" xmlns="http://www.w3.org/2000/svg">
<path d="M41.4369 51.746H37.3209L36.5509 54H34.8429L38.3709 44.2H40.3869L43.9009 54H42.2069L41.4369 51.746ZM40.9469 50.304L39.4909 45.992H39.2669L37.8109 50.304H40.9469ZM45.105 43.92H46.659V54H45.105V43.92ZM48.1948 43.92H49.7488V54H48.1948V43.92Z" fill="white"/>
<path d="M41.3021 18.5H35.4688V24.3333H41.3021V18.5Z" stroke="white" stroke-width="2" stroke-linecap="round" stroke-linejoin="round"/>
<path d="M50.4681 18.5H44.6348V24.3333H50.4681V18.5Z" stroke="white" stroke-width="2" stroke-linecap="round" stroke-linejoin="round"/>
<path d="M50.4681 27.6667H44.6348V33.5H50.4681V27.6667Z" stroke="white" stroke-width="2" stroke-linecap="round" stroke-linejoin="round"/>
<path d="M41.3021 27.6667H35.4688V33.5H41.3021V27.6667Z" stroke="white" stroke-width="2" stroke-linecap="round" stroke-linejoin="round"/>
</svg>
