<svg width="83" height="69" viewBox="0 0 83 69" fill="none" xmlns="http://www.w3.org/2000/svg">
<path d="M40.4681 51.746H36.3521L35.5821 54H33.8741L37.4021 44.2H39.4181L42.9321 54H41.2381L40.4681 51.746ZM39.9781 50.304L38.5221 45.992H38.2981L36.8421 50.304H39.9781ZM44.1362 43.92H45.6902V54H44.1362V43.92ZM47.2261 43.92H48.7801V54H47.2261V43.92Z" fill="#00A88E"/>
<path d="M40.3333 18.5H34.5V24.3333H40.3333V18.5Z" stroke="#00A88E" stroke-width="2" stroke-linecap="round" stroke-linejoin="round"/>
<path d="M49.4993 18.5H43.666V24.3333H49.4993V18.5Z" stroke="#00A88E" stroke-width="2" stroke-linecap="round" stroke-linejoin="round"/>
<path d="M49.4993 27.6667H43.666V33.5001H49.4993V27.6667Z" stroke="#00A88E" stroke-width="2" stroke-linecap="round" stroke-linejoin="round"/>
<path d="M40.3333 27.6667H34.5V33.5001H40.3333V27.6667Z" stroke="#00A88E" stroke-width="2" stroke-linecap="round" stroke-linejoin="round"/>
</svg>
