<svg width="83" height="69" viewBox="0 0 83 69" fill="none" xmlns="http://www.w3.org/2000/svg">
<path d="M23.3304 51.746H19.2144L18.4444 54H16.7364L20.2644 44.2H22.2804L25.7944 54H24.1004L23.3304 51.746ZM22.8404 50.304L21.3844 45.992H21.1604L19.7044 50.304H22.8404ZM26.9565 47.252H28.5105V48.05H28.7345C28.8932 47.7793 29.1452 47.5507 29.4905 47.364C29.8358 47.1773 30.2512 47.084 30.7365 47.084C31.4458 47.084 32.0385 47.2987 32.5145 47.728C32.9905 48.148 33.2285 48.7967 33.2285 49.674V54H31.6745V50.164C31.6745 49.6507 31.5345 49.268 31.2545 49.016C30.9838 48.7547 30.6292 48.624 30.1905 48.624C29.6585 48.624 29.2432 48.792 28.9445 49.128C28.6552 49.464 28.5105 49.9213 28.5105 50.5V54H26.9565V47.252ZM37.4961 54.168C36.9641 54.168 36.4648 54.0373 35.9981 53.776C35.5408 53.5053 35.1674 53.1087 34.8781 52.586C34.5981 52.054 34.4581 51.4147 34.4581 50.668C34.4581 49.8933 34.6074 49.2353 34.9061 48.694C35.2048 48.1527 35.5921 47.7513 36.0681 47.49C36.5534 47.2193 37.0668 47.084 37.6081 47.084C38.0188 47.084 38.4154 47.1633 38.7981 47.322C39.1901 47.4807 39.5214 47.728 39.7921 48.064V43.92H41.3461V54H39.7921V53.118H39.5821C39.3581 53.4727 39.0594 53.7387 38.6861 53.916C38.3221 54.084 37.9254 54.168 37.4961 54.168ZM37.9161 52.712C38.4388 52.712 38.8821 52.5347 39.2461 52.18C39.6101 51.8253 39.7921 51.3073 39.7921 50.626C39.7921 49.9447 39.6101 49.4267 39.2461 49.072C38.8821 48.7173 38.4388 48.54 37.9161 48.54C37.3934 48.54 36.9454 48.7173 36.5721 49.072C36.2081 49.4173 36.0261 49.9353 36.0261 50.626C36.0261 51.3167 36.2081 51.8393 36.5721 52.194C36.9454 52.5393 37.3934 52.712 37.9161 52.712ZM42.8432 47.252H44.3972V48.12H44.6212C44.7519 47.8213 44.9432 47.588 45.1952 47.42C45.4566 47.2427 45.7879 47.154 46.1892 47.154H47.1132V48.694H46.0772C45.5079 48.694 45.0832 48.862 44.8032 49.198C44.5326 49.5247 44.3972 49.9913 44.3972 50.598V54H42.8432V47.252ZM51.2879 54.168C50.5972 54.168 49.9859 54.0093 49.4539 53.692C48.9312 53.3747 48.5252 52.95 48.2359 52.418C47.9465 51.8767 47.8019 51.2793 47.8019 50.626C47.8019 49.9727 47.9465 49.38 48.2359 48.848C48.5252 48.3067 48.9312 47.8773 49.4539 47.56C49.9859 47.2427 50.5972 47.084 51.2879 47.084C51.9785 47.084 52.5899 47.2427 53.1219 47.56C53.6539 47.8773 54.0645 48.3067 54.3539 48.848C54.6432 49.38 54.7879 49.9727 54.7879 50.626C54.7879 51.2793 54.6432 51.8767 54.3539 52.418C54.0645 52.95 53.6539 53.3747 53.1219 53.692C52.5899 54.0093 51.9785 54.168 51.2879 54.168ZM51.2879 52.712C51.8292 52.712 52.2865 52.5253 52.6599 52.152C53.0332 51.7693 53.2199 51.2607 53.2199 50.626C53.2199 49.9913 53.0332 49.4873 52.6599 49.114C52.2865 48.7313 51.8292 48.54 51.2879 48.54C50.7465 48.54 50.2892 48.7313 49.9159 49.114C49.5425 49.4873 49.3559 49.9913 49.3559 50.626C49.3559 51.2607 49.5425 51.7693 49.9159 52.152C50.2892 52.5253 50.7465 52.712 51.2879 52.712ZM56.0639 44.284H57.7439V45.95H56.0639V44.284ZM56.1339 47.252H57.6879V54H56.1339V47.252ZM62.0645 54.168C61.5325 54.168 61.0331 54.0373 60.5665 53.776C60.1091 53.5053 59.7358 53.1087 59.4465 52.586C59.1665 52.054 59.0265 51.4147 59.0265 50.668C59.0265 49.8933 59.1758 49.2353 59.4745 48.694C59.7731 48.1527 60.1605 47.7513 60.6365 47.49C61.1218 47.2193 61.6351 47.084 62.1765 47.084C62.5871 47.084 62.9838 47.1633 63.3665 47.322C63.7585 47.4807 64.0898 47.728 64.3605 48.064V43.92H65.9145V54H64.3605V53.118H64.1505C63.9265 53.4727 63.6278 53.7387 63.2545 53.916C62.8905 54.084 62.4938 54.168 62.0645 54.168ZM62.4845 52.712C63.0071 52.712 63.4505 52.5347 63.8145 52.18C64.1785 51.8253 64.3605 51.3073 64.3605 50.626C64.3605 49.9447 64.1785 49.4267 63.8145 49.072C63.4505 48.7173 63.0071 48.54 62.4845 48.54C61.9618 48.54 61.5138 48.7173 61.1405 49.072C60.7765 49.4173 60.5945 49.9353 60.5945 50.626C60.5945 51.3167 60.7765 51.8393 61.1405 52.194C61.5138 52.5393 61.9618 52.712 62.4845 52.712Z" fill="#1D1D1B"/>
<path d="M47.8309 20.8207L50.1536 16.7205C50.2846 16.4911 50.2054 16.1984 49.9828 16.0655C49.7604 15.9315 49.4708 16.0098 49.3428 16.2392L46.9896 20.3919C45.1942 19.5568 43.1734 19.0905 41.0001 19.0905C38.8268 19.0905 36.8058 19.5568 35.0105 20.3919L32.6574 16.2392C32.5263 16.0098 32.2398 15.9315 32.0141 16.0655C31.7886 16.1984 31.7124 16.4911 31.8435 16.7205L34.1662 20.8207C30.1609 23.0321 27.4481 27.1634 27 32H55C54.552 27.1634 51.8391 23.0321 47.8309 20.8207ZM34.5716 27.9931C33.9223 27.9931 33.398 27.456 33.398 26.7968C33.398 26.1354 33.9254 25.6016 34.5716 25.6016C35.2208 25.6016 35.7451 26.1386 35.7451 26.7968C35.7483 27.456 35.2208 27.9931 34.5716 27.9931ZM47.4255 27.9931C46.7763 27.9931 46.2519 27.456 46.2519 26.7968C46.2519 26.1354 46.7793 25.6016 47.4255 25.6016C48.0747 25.6016 48.599 26.1386 48.599 26.7968C48.6022 27.456 48.0747 27.9931 47.4255 27.9931Z" fill="#1D1D1B"/>
</svg>
