<svg width="84" height="69" viewBox="0 0 84 69" fill="none" xmlns="http://www.w3.org/2000/svg">
<path d="M24.2992 51.746H20.1832L19.4132 54H17.7052L21.2332 44.2H23.2492L26.7632 54H25.0692L24.2992 51.746ZM23.8092 50.304L22.3532 45.992H22.1292L20.6732 50.304H23.8092ZM27.9253 47.252H29.4793V48.05H29.7033C29.8619 47.7793 30.1139 47.5507 30.4593 47.364C30.8046 47.1773 31.2199 47.084 31.7053 47.084C32.4146 47.084 33.0073 47.2987 33.4833 47.728C33.9593 48.148 34.1973 48.7967 34.1973 49.674V54H32.6433V50.164C32.6433 49.6507 32.5033 49.268 32.2233 49.016C31.9526 48.7547 31.5979 48.624 31.1593 48.624C30.6273 48.624 30.2119 48.792 29.9133 49.128C29.6239 49.464 29.4793 49.9213 29.4793 50.5V54H27.9253V47.252ZM38.4649 54.168C37.9329 54.168 37.4335 54.0373 36.9669 53.776C36.5095 53.5053 36.1362 53.1087 35.8469 52.586C35.5669 52.054 35.4269 51.4147 35.4269 50.668C35.4269 49.8933 35.5762 49.2353 35.8749 48.694C36.1735 48.1527 36.5609 47.7513 37.0369 47.49C37.5222 47.2193 38.0355 47.084 38.5769 47.084C38.9875 47.084 39.3842 47.1633 39.7669 47.322C40.1589 47.4807 40.4902 47.728 40.7609 48.064V43.92H42.3149V54H40.7609V53.118H40.5509C40.3269 53.4727 40.0282 53.7387 39.6549 53.916C39.2909 54.084 38.8942 54.168 38.4649 54.168ZM38.8849 52.712C39.4075 52.712 39.8509 52.5347 40.2149 52.18C40.5789 51.8253 40.7609 51.3073 40.7609 50.626C40.7609 49.9447 40.5789 49.4267 40.2149 49.072C39.8509 48.7173 39.4075 48.54 38.8849 48.54C38.3622 48.54 37.9142 48.7173 37.5409 49.072C37.1769 49.4173 36.9949 49.9353 36.9949 50.626C36.9949 51.3167 37.1769 51.8393 37.5409 52.194C37.9142 52.5393 38.3622 52.712 38.8849 52.712ZM43.812 47.252H45.366V48.12H45.59C45.7207 47.8213 45.912 47.588 46.164 47.42C46.4253 47.2427 46.7567 47.154 47.158 47.154H48.082V48.694H47.046C46.4767 48.694 46.052 48.862 45.772 49.198C45.5013 49.5247 45.366 49.9913 45.366 50.598V54H43.812V47.252ZM52.2566 54.168C51.5659 54.168 50.9546 54.0093 50.4226 53.692C49.8999 53.3747 49.4939 52.95 49.2046 52.418C48.9153 51.8767 48.7706 51.2793 48.7706 50.626C48.7706 49.9727 48.9153 49.38 49.2046 48.848C49.4939 48.3067 49.8999 47.8773 50.4226 47.56C50.9546 47.2427 51.5659 47.084 52.2566 47.084C52.9473 47.084 53.5586 47.2427 54.0906 47.56C54.6226 47.8773 55.0333 48.3067 55.3226 48.848C55.6119 49.38 55.7566 49.9727 55.7566 50.626C55.7566 51.2793 55.6119 51.8767 55.3226 52.418C55.0333 52.95 54.6226 53.3747 54.0906 53.692C53.5586 54.0093 52.9473 54.168 52.2566 54.168ZM52.2566 52.712C52.7979 52.712 53.2553 52.5253 53.6286 52.152C54.0019 51.7693 54.1886 51.2607 54.1886 50.626C54.1886 49.9913 54.0019 49.4873 53.6286 49.114C53.2553 48.7313 52.7979 48.54 52.2566 48.54C51.7153 48.54 51.2579 48.7313 50.8846 49.114C50.5113 49.4873 50.3246 49.9913 50.3246 50.626C50.3246 51.2607 50.5113 51.7693 50.8846 52.152C51.2579 52.5253 51.7153 52.712 52.2566 52.712ZM57.0327 44.284H58.7127V45.95H57.0327V44.284ZM57.1027 47.252H58.6567V54H57.1027V47.252ZM63.0332 54.168C62.5012 54.168 62.0019 54.0373 61.5352 53.776C61.0779 53.5053 60.7046 53.1087 60.4152 52.586C60.1352 52.054 59.9952 51.4147 59.9952 50.668C59.9952 49.8933 60.1446 49.2353 60.4432 48.694C60.7419 48.1527 61.1292 47.7513 61.6052 47.49C62.0906 47.2193 62.6039 47.084 63.1452 47.084C63.5559 47.084 63.9526 47.1633 64.3352 47.322C64.7272 47.4807 65.0586 47.728 65.3292 48.064V43.92H66.8832V54H65.3292V53.118H65.1192C64.8952 53.4727 64.5966 53.7387 64.2232 53.916C63.8592 54.084 63.4626 54.168 63.0332 54.168ZM63.4532 52.712C63.9759 52.712 64.4192 52.5347 64.7832 52.18C65.1472 51.8253 65.3292 51.3073 65.3292 50.626C65.3292 49.9447 65.1472 49.4267 64.7832 49.072C64.4192 48.7173 63.9759 48.54 63.4532 48.54C62.9306 48.54 62.4826 48.7173 62.1092 49.072C61.7452 49.4173 61.5632 49.9353 61.5632 50.626C61.5632 51.3167 61.7452 51.8393 62.1092 52.194C62.4826 52.5393 62.9306 52.712 63.4532 52.712Z" fill="white"/>
<path d="M48.7996 20.8207L51.1223 16.7205C51.2534 16.4911 51.1742 16.1984 50.9516 16.0655C50.7291 15.9315 50.4395 16.0098 50.3115 16.2392L47.9583 20.3919C46.163 19.5568 44.1421 19.0905 41.9688 19.0905C39.7955 19.0905 37.7745 19.5568 35.9793 20.3919L33.6261 16.2392C33.495 16.0098 33.2085 15.9315 32.9829 16.0655C32.7573 16.1984 32.6812 16.4911 32.8123 16.7205L35.1349 20.8207C31.1297 23.0321 28.4169 27.1634 27.9688 32H55.9688C55.5208 27.1634 52.8078 23.0321 48.7996 20.8207ZM35.5403 27.9931C34.8911 27.9931 34.3667 27.456 34.3667 26.7968C34.3667 26.1354 34.8941 25.6016 35.5403 25.6016C36.1895 25.6016 36.7138 26.1386 36.7138 26.7968C36.7171 27.456 36.1895 27.9931 35.5403 27.9931ZM48.3942 27.9931C47.745 27.9931 47.2206 27.456 47.2206 26.7968C47.2206 26.1354 47.7481 25.6016 48.3942 25.6016C49.0435 25.6016 49.5677 26.1386 49.5677 26.7968C49.571 27.456 49.0435 27.9931 48.3942 27.9931Z" fill="white"/>
</svg>
