<svg width="85" height="69" viewBox="0 0 85 69" fill="none" xmlns="http://www.w3.org/2000/svg">
<path d="M0.992648 44.284H2.67265V45.95H0.992648V44.284ZM1.06265 47.252H2.61665V54H1.06265V47.252ZM8.36518 44.2C9.02785 44.2 9.59718 44.3307 10.0732 44.592C10.5585 44.8533 10.9272 45.2173 11.1792 45.684C11.4312 46.1413 11.5572 46.6593 11.5572 47.238C11.5572 47.8167 11.4312 48.3393 11.1792 48.806C10.9272 49.2633 10.5585 49.6227 10.0732 49.884C9.59718 50.1453 9.02785 50.276 8.36518 50.276H5.83118V54H4.24918V44.2H8.36518ZM8.23918 48.834C8.79918 48.834 9.22385 48.6893 9.51318 48.4C9.80251 48.1107 9.94718 47.7233 9.94718 47.238C9.94718 46.7527 9.80251 46.3653 9.51318 46.076C9.22385 45.7867 8.79918 45.642 8.23918 45.642H5.83118V48.834H8.23918ZM12.9429 43.92H14.4969V48.05H14.7209C14.8795 47.7793 15.1269 47.5507 15.4629 47.364C15.8082 47.1773 16.2235 47.084 16.7089 47.084C17.4182 47.084 18.0109 47.294 18.4869 47.714C18.9629 48.134 19.2009 48.7873 19.2009 49.674V54H17.6469V50.164C17.6469 49.6507 17.5069 49.268 17.2269 49.016C16.9562 48.7547 16.6015 48.624 16.1629 48.624C15.6402 48.624 15.2295 48.792 14.9309 49.128C14.6415 49.464 14.4969 49.9213 14.4969 50.5V54H12.9429V43.92ZM23.9158 54.168C23.2251 54.168 22.6138 54.0093 22.0818 53.692C21.5591 53.3747 21.1531 52.95 20.8638 52.418C20.5745 51.8767 20.4298 51.2793 20.4298 50.626C20.4298 49.9727 20.5745 49.38 20.8638 48.848C21.1531 48.3067 21.5591 47.8773 22.0818 47.56C22.6138 47.2427 23.2251 47.084 23.9158 47.084C24.6065 47.084 25.2178 47.2427 25.7498 47.56C26.2818 47.8773 26.6925 48.3067 26.9818 48.848C27.2711 49.38 27.4158 49.9727 27.4158 50.626C27.4158 51.2793 27.2711 51.8767 26.9818 52.418C26.6925 52.95 26.2818 53.3747 25.7498 53.692C25.2178 54.0093 24.6065 54.168 23.9158 54.168ZM23.9158 52.712C24.4571 52.712 24.9145 52.5253 25.2878 52.152C25.6611 51.7693 25.8478 51.2607 25.8478 50.626C25.8478 49.9913 25.6611 49.4873 25.2878 49.114C24.9145 48.7313 24.4571 48.54 23.9158 48.54C23.3745 48.54 22.9171 48.7313 22.5438 49.114C22.1705 49.4873 21.9838 49.9913 21.9838 50.626C21.9838 51.2607 22.1705 51.7693 22.5438 52.152C22.9171 52.5253 23.3745 52.712 23.9158 52.712ZM28.6919 47.252H30.2459V48.05H30.4699C30.6285 47.7793 30.8805 47.5507 31.2259 47.364C31.5712 47.1773 31.9865 47.084 32.4719 47.084C33.1812 47.084 33.7739 47.2987 34.2499 47.728C34.7259 48.148 34.9639 48.7967 34.9639 49.674V54H33.4099V50.164C33.4099 49.6507 33.2699 49.268 32.9899 49.016C32.7192 48.7547 32.3645 48.624 31.9259 48.624C31.3939 48.624 30.9785 48.792 30.6799 49.128C30.3905 49.464 30.2459 49.9213 30.2459 50.5V54H28.6919V47.252ZM39.5955 54.168C38.9235 54.168 38.3261 54.0187 37.8035 53.72C37.2901 53.412 36.8935 52.992 36.6135 52.46C36.3335 51.9187 36.1935 51.312 36.1935 50.64C36.1935 49.968 36.3335 49.3613 36.6135 48.82C36.8935 48.2787 37.2901 47.854 37.8035 47.546C38.3168 47.238 38.9095 47.084 39.5815 47.084C40.2161 47.084 40.7761 47.2193 41.2615 47.49C41.7561 47.7607 42.1388 48.1387 42.4095 48.624C42.6801 49.1 42.8155 49.6413 42.8155 50.248V51.046H37.7475C37.8128 51.606 38.0088 52.0353 38.3355 52.334C38.6621 52.6233 39.0775 52.768 39.5815 52.768C39.9828 52.768 40.3141 52.684 40.5755 52.516C40.8368 52.3387 41.0235 52.1053 41.1355 51.816H42.6895C42.5028 52.5253 42.1388 53.0947 41.5975 53.524C41.0561 53.9533 40.3888 54.168 39.5955 54.168ZM41.3035 49.898C41.2848 49.4687 41.1215 49.114 40.8135 48.834C40.5148 48.5447 40.1088 48.4 39.5955 48.4C39.1381 48.4 38.7461 48.5307 38.4195 48.792C38.1021 49.0533 37.8921 49.422 37.7895 49.898H41.3035ZM49.4446 54.168C48.9592 54.168 48.5299 54.0747 48.1566 53.888C47.7832 53.692 47.4939 53.4307 47.2886 53.104C47.0832 52.768 46.9806 52.39 46.9806 51.97C46.9806 51.6247 47.0319 51.3213 47.1346 51.06C47.2466 50.7893 47.3679 50.57 47.4986 50.402C47.6292 50.2247 47.8066 50.0193 48.0306 49.786L48.8986 48.904L48.6466 48.624C48.2919 48.2227 48.0166 47.8587 47.8206 47.532C47.6339 47.2053 47.5406 46.8227 47.5406 46.384C47.5406 45.964 47.6386 45.5767 47.8346 45.222C48.0306 44.858 48.3152 44.5687 48.6886 44.354C49.0619 44.1393 49.5052 44.032 50.0186 44.032C50.5039 44.032 50.9239 44.1347 51.2786 44.34C51.6426 44.5453 51.9179 44.816 52.1046 45.152C52.2912 45.4787 52.3846 45.8333 52.3846 46.216C52.3846 46.6547 52.2912 47.0327 52.1046 47.35C51.9272 47.6673 51.6986 47.966 51.4186 48.246L50.7886 48.904L52.2026 50.472L53.6306 48.834H55.3106L53.2386 51.326V51.634L55.3526 54H53.5186L52.2166 52.572L51.9786 52.838C51.6052 53.2673 51.2272 53.5987 50.8446 53.832C50.4712 54.056 50.0046 54.168 49.4446 54.168ZM50.3126 47.462C50.3312 47.434 50.3966 47.364 50.5086 47.252C50.6299 47.14 50.7279 47.0047 50.8026 46.846C50.8866 46.6873 50.9286 46.524 50.9286 46.356C50.9286 46.0667 50.8352 45.8473 50.6486 45.698C50.4619 45.5393 50.2379 45.46 49.9766 45.46C49.6966 45.46 49.4632 45.5487 49.2766 45.726C49.0992 45.894 49.0106 46.118 49.0106 46.398C49.0106 46.6127 49.0619 46.818 49.1646 47.014C49.2766 47.2007 49.4306 47.3967 49.6266 47.602L49.8926 47.882L50.3126 47.462ZM49.6266 52.614C49.8692 52.614 50.0932 52.5533 50.2986 52.432C50.5132 52.3013 50.7372 52.11 50.9706 51.858L51.2646 51.536L49.8366 49.968L49.1506 50.668C48.9919 50.836 48.8659 50.9947 48.7726 51.144C48.6886 51.2933 48.6466 51.48 48.6466 51.704C48.6466 51.984 48.7352 52.208 48.9126 52.376C49.0992 52.5347 49.3372 52.614 49.6266 52.614ZM59.4809 44.284H61.1609V45.95H59.4809V44.284ZM59.5509 47.252H61.1049V54H59.5509V47.252ZM66.8535 44.2C67.5161 44.2 68.0855 44.3307 68.5615 44.592C69.0468 44.8533 69.4155 45.2173 69.6675 45.684C69.9195 46.1413 70.0455 46.6593 70.0455 47.238C70.0455 47.8167 69.9195 48.3393 69.6675 48.806C69.4155 49.2633 69.0468 49.6227 68.5615 49.884C68.0855 50.1453 67.5161 50.276 66.8535 50.276H64.3195V54H62.7375V44.2H66.8535ZM66.7275 48.834C67.2875 48.834 67.7121 48.6893 68.0015 48.4C68.2908 48.1107 68.4355 47.7233 68.4355 47.238C68.4355 46.7527 68.2908 46.3653 68.0015 46.076C67.7121 45.7867 67.2875 45.642 66.7275 45.642H64.3195V48.834H66.7275ZM73.9366 47.084C74.7953 47.084 75.4813 47.2893 75.9946 47.7C76.5173 48.1013 76.7786 48.7127 76.7786 49.534V54H75.2246V53.426H75.0006C74.7859 53.6407 74.4966 53.818 74.1326 53.958C73.7779 54.098 73.4046 54.168 73.0126 54.168C72.2659 54.168 71.6779 53.9813 71.2486 53.608C70.8193 53.2347 70.6046 52.7353 70.6046 52.11C70.6046 51.4567 70.8239 50.9433 71.2626 50.57C71.7013 50.1873 72.3219 49.996 73.1246 49.996H75.2246V49.618C75.2246 49.2727 75.1173 49.002 74.9026 48.806C74.6879 48.6007 74.3613 48.498 73.9226 48.498C73.5213 48.498 73.1993 48.582 72.9566 48.75C72.7233 48.9087 72.5833 49.1327 72.5366 49.422H70.8846C70.9593 48.722 71.2673 48.1573 71.8086 47.728C72.3593 47.2987 73.0686 47.084 73.9366 47.084ZM73.3626 52.866C74.1093 52.866 74.7299 52.5533 75.2246 51.928V51.116H73.2786C72.9239 51.116 72.6533 51.1907 72.4666 51.34C72.2799 51.48 72.1866 51.6947 72.1866 51.984C72.1866 52.2733 72.2939 52.4927 72.5086 52.642C72.7233 52.7913 73.0079 52.866 73.3626 52.866ZM81.0537 54.168C80.5217 54.168 80.0224 54.0373 79.5557 53.776C79.0984 53.5053 78.7251 53.1087 78.4357 52.586C78.1557 52.054 78.0157 51.4147 78.0157 50.668C78.0157 49.8933 78.1651 49.2353 78.4637 48.694C78.7624 48.1527 79.1497 47.7513 79.6257 47.49C80.1111 47.2193 80.6244 47.084 81.1657 47.084C81.5764 47.084 81.9731 47.1633 82.3557 47.322C82.7477 47.4807 83.0791 47.728 83.3497 48.064V43.92H84.9037V54H83.3497V53.118H83.1397C82.9157 53.4727 82.6171 53.7387 82.2437 53.916C81.8797 54.084 81.4831 54.168 81.0537 54.168ZM81.4737 52.712C81.9964 52.712 82.4397 52.5347 82.8037 52.18C83.1677 51.8253 83.3497 51.3073 83.3497 50.626C83.3497 49.9447 83.1677 49.4267 82.8037 49.072C82.4397 48.7173 81.9964 48.54 81.4737 48.54C80.9511 48.54 80.5031 48.7173 80.1297 49.072C79.7657 49.4173 79.5837 49.9353 79.5837 50.626C79.5837 51.3167 79.7657 51.8393 80.1297 52.194C80.5031 52.5393 80.9511 52.712 81.4737 52.712Z" fill="white"/>
<path d="M31.0757 31.8071H32.9777V23.2932H31.0757V31.8071ZM32.0228 22.1767C32.6187 22.1767 33.0846 21.6947 33.0846 21.0924C33.0846 20.4819 32.6187 20 32.0228 20C31.4347 20 30.9688 20.4819 30.9688 21.0924C30.9688 21.6948 31.4347 22.1767 32.0228 22.1767ZM39.3102 20.024C36.0945 20.024 34.0778 22.3292 34.0778 26.016C34.0778 29.7028 36.0943 32 39.3102 32C42.5183 32 44.5349 29.7028 44.5349 26.016C44.5349 22.3292 42.5185 20.024 39.3102 20.024ZM39.3102 21.7911C41.2733 21.7911 42.5259 23.4296 42.5259 26.016C42.5259 28.5943 41.2732 30.2329 39.3102 30.2329C37.3395 30.2329 36.0945 28.5943 36.0945 26.016C36.0945 23.4297 37.3395 21.7911 39.3102 21.7911ZM45.3372 28.5461C45.4213 30.6828 47.0864 32 49.6224 32C52.2882 32 53.9688 30.6184 53.9688 28.4176C53.9688 26.6908 53.0216 25.7189 50.7835 25.1808L49.5156 24.8755C48.1635 24.5382 47.6059 24.0884 47.6059 23.3173C47.6059 22.3535 48.4462 21.7109 49.6912 21.7109C50.9516 21.7109 51.8146 22.3615 51.9063 23.4458H53.7854C53.7396 21.4057 52.1355 20.0241 49.7066 20.0241C47.308 20.0241 45.6046 21.4136 45.6046 23.4699C45.6046 25.1245 46.5671 26.1526 48.5988 26.6426L50.0272 26.996C51.4174 27.3414 51.9826 27.8233 51.9826 28.6587C51.9826 29.6225 51.0584 30.3133 49.7294 30.3133C48.385 30.3133 47.3692 29.6145 47.2469 28.5462H45.3373L45.3372 28.5461Z" fill="white"/>
</svg>
