<svg width="84" height="69" viewBox="0 0 84 69" fill="none" xmlns="http://www.w3.org/2000/svg">
<path d="M0.0238985 44.284H1.7039V45.95H0.0238985V44.284ZM0.0938985 47.252H1.6479V54H0.0938985V47.252ZM7.39643 44.2C8.0591 44.2 8.62843 44.3307 9.10443 44.592C9.58976 44.8533 9.95843 45.2173 10.2104 45.684C10.4624 46.1413 10.5884 46.6593 10.5884 47.238C10.5884 47.8167 10.4624 48.3393 10.2104 48.806C9.95843 49.2633 9.58976 49.6227 9.10443 49.884C8.62843 50.1453 8.0591 50.276 7.39643 50.276H4.86243V54H3.28043V44.2H7.39643ZM7.27043 48.834C7.83043 48.834 8.2551 48.6893 8.54443 48.4C8.83376 48.1107 8.97843 47.7233 8.97843 47.238C8.97843 46.7527 8.83376 46.3653 8.54443 46.076C8.2551 45.7867 7.83043 45.642 7.27043 45.642H4.86243V48.834H7.27043ZM11.9741 43.92H13.5281V48.05H13.7521C13.9108 47.7793 14.1581 47.5507 14.4941 47.364C14.8394 47.1773 15.2548 47.084 15.7401 47.084C16.4494 47.084 17.0421 47.294 17.5181 47.714C17.9941 48.134 18.2321 48.7873 18.2321 49.674V54H16.6781V50.164C16.6781 49.6507 16.5381 49.268 16.2581 49.016C15.9874 48.7547 15.6328 48.624 15.1941 48.624C14.6714 48.624 14.2608 48.792 13.9621 49.128C13.6728 49.464 13.5281 49.9213 13.5281 50.5V54H11.9741V43.92ZM22.947 54.168C22.2564 54.168 21.645 54.0093 21.113 53.692C20.5904 53.3747 20.1844 52.95 19.895 52.418C19.6057 51.8767 19.461 51.2793 19.461 50.626C19.461 49.9727 19.6057 49.38 19.895 48.848C20.1844 48.3067 20.5904 47.8773 21.113 47.56C21.645 47.2427 22.2564 47.084 22.947 47.084C23.6377 47.084 24.249 47.2427 24.781 47.56C25.313 47.8773 25.7237 48.3067 26.013 48.848C26.3024 49.38 26.447 49.9727 26.447 50.626C26.447 51.2793 26.3024 51.8767 26.013 52.418C25.7237 52.95 25.313 53.3747 24.781 53.692C24.249 54.0093 23.6377 54.168 22.947 54.168ZM22.947 52.712C23.4884 52.712 23.9457 52.5253 24.319 52.152C24.6924 51.7693 24.879 51.2607 24.879 50.626C24.879 49.9913 24.6924 49.4873 24.319 49.114C23.9457 48.7313 23.4884 48.54 22.947 48.54C22.4057 48.54 21.9484 48.7313 21.575 49.114C21.2017 49.4873 21.015 49.9913 21.015 50.626C21.015 51.2607 21.2017 51.7693 21.575 52.152C21.9484 52.5253 22.4057 52.712 22.947 52.712ZM27.7231 47.252H29.2771V48.05H29.5011C29.6598 47.7793 29.9118 47.5507 30.2571 47.364C30.6025 47.1773 31.0178 47.084 31.5031 47.084C32.2125 47.084 32.8051 47.2987 33.2811 47.728C33.7571 48.148 33.9951 48.7967 33.9951 49.674V54H32.4411V50.164C32.4411 49.6507 32.3011 49.268 32.0211 49.016C31.7505 48.7547 31.3958 48.624 30.9571 48.624C30.4251 48.624 30.0098 48.792 29.7111 49.128C29.4218 49.464 29.2771 49.9213 29.2771 50.5V54H27.7231V47.252ZM38.6267 54.168C37.9547 54.168 37.3574 54.0187 36.8347 53.72C36.3214 53.412 35.9247 52.992 35.6447 52.46C35.3647 51.9187 35.2247 51.312 35.2247 50.64C35.2247 49.968 35.3647 49.3613 35.6447 48.82C35.9247 48.2787 36.3214 47.854 36.8347 47.546C37.348 47.238 37.9407 47.084 38.6127 47.084C39.2474 47.084 39.8074 47.2193 40.2927 47.49C40.7874 47.7607 41.17 48.1387 41.4407 48.624C41.7114 49.1 41.8467 49.6413 41.8467 50.248V51.046H36.7787C36.844 51.606 37.04 52.0353 37.3667 52.334C37.6934 52.6233 38.1087 52.768 38.6127 52.768C39.014 52.768 39.3454 52.684 39.6067 52.516C39.868 52.3387 40.0547 52.1053 40.1667 51.816H41.7207C41.534 52.5253 41.17 53.0947 40.6287 53.524C40.0874 53.9533 39.42 54.168 38.6267 54.168ZM40.3347 49.898C40.316 49.4687 40.1527 49.114 39.8447 48.834C39.546 48.5447 39.14 48.4 38.6267 48.4C38.1694 48.4 37.7774 48.5307 37.4507 48.792C37.1334 49.0533 36.9234 49.422 36.8207 49.898H40.3347ZM48.4758 54.168C47.9905 54.168 47.5612 54.0747 47.1878 53.888C46.8145 53.692 46.5252 53.4307 46.3198 53.104C46.1145 52.768 46.0118 52.39 46.0118 51.97C46.0118 51.6247 46.0632 51.3213 46.1658 51.06C46.2778 50.7893 46.3992 50.57 46.5298 50.402C46.6605 50.2247 46.8378 50.0193 47.0618 49.786L47.9298 48.904L47.6778 48.624C47.3232 48.2227 47.0478 47.8587 46.8518 47.532C46.6652 47.2053 46.5718 46.8227 46.5718 46.384C46.5718 45.964 46.6698 45.5767 46.8658 45.222C47.0618 44.858 47.3465 44.5687 47.7198 44.354C48.0932 44.1393 48.5365 44.032 49.0498 44.032C49.5352 44.032 49.9552 44.1347 50.3098 44.34C50.6738 44.5453 50.9492 44.816 51.1358 45.152C51.3225 45.4787 51.4158 45.8333 51.4158 46.216C51.4158 46.6547 51.3225 47.0327 51.1358 47.35C50.9585 47.6673 50.7298 47.966 50.4498 48.246L49.8198 48.904L51.2338 50.472L52.6618 48.834H54.3418L52.2698 51.326V51.634L54.3838 54H52.5498L51.2478 52.572L51.0098 52.838C50.6365 53.2673 50.2585 53.5987 49.8758 53.832C49.5025 54.056 49.0358 54.168 48.4758 54.168ZM49.3438 47.462C49.3625 47.434 49.4278 47.364 49.5398 47.252C49.6612 47.14 49.7592 47.0047 49.8338 46.846C49.9178 46.6873 49.9598 46.524 49.9598 46.356C49.9598 46.0667 49.8665 45.8473 49.6798 45.698C49.4932 45.5393 49.2692 45.46 49.0078 45.46C48.7278 45.46 48.4945 45.5487 48.3078 45.726C48.1305 45.894 48.0418 46.118 48.0418 46.398C48.0418 46.6127 48.0932 46.818 48.1958 47.014C48.3078 47.2007 48.4618 47.3967 48.6578 47.602L48.9238 47.882L49.3438 47.462ZM48.6578 52.614C48.9005 52.614 49.1245 52.5533 49.3298 52.432C49.5445 52.3013 49.7685 52.11 50.0018 51.858L50.2958 51.536L48.8678 49.968L48.1818 50.668C48.0232 50.836 47.8972 50.9947 47.8038 51.144C47.7198 51.2933 47.6778 51.48 47.6778 51.704C47.6778 51.984 47.7665 52.208 47.9438 52.376C48.1305 52.5347 48.3685 52.614 48.6578 52.614ZM58.5122 44.284H60.1922V45.95H58.5122V44.284ZM58.5822 47.252H60.1362V54H58.5822V47.252ZM65.8847 44.2C66.5474 44.2 67.1167 44.3307 67.5927 44.592C68.078 44.8533 68.4467 45.2173 68.6987 45.684C68.9507 46.1413 69.0767 46.6593 69.0767 47.238C69.0767 47.8167 68.9507 48.3393 68.6987 48.806C68.4467 49.2633 68.078 49.6227 67.5927 49.884C67.1167 50.1453 66.5474 50.276 65.8847 50.276H63.3507V54H61.7687V44.2H65.8847ZM65.7587 48.834C66.3187 48.834 66.7434 48.6893 67.0327 48.4C67.322 48.1107 67.4667 47.7233 67.4667 47.238C67.4667 46.7527 67.322 46.3653 67.0327 46.076C66.7434 45.7867 66.3187 45.642 65.7587 45.642H63.3507V48.834H65.7587ZM72.9678 47.084C73.8265 47.084 74.5125 47.2893 75.0258 47.7C75.5485 48.1013 75.8098 48.7127 75.8098 49.534V54H74.2558V53.426H74.0318C73.8172 53.6407 73.5278 53.818 73.1638 53.958C72.8092 54.098 72.4358 54.168 72.0438 54.168C71.2972 54.168 70.7092 53.9813 70.2798 53.608C69.8505 53.2347 69.6358 52.7353 69.6358 52.11C69.6358 51.4567 69.8552 50.9433 70.2938 50.57C70.7325 50.1873 71.3532 49.996 72.1558 49.996H74.2558V49.618C74.2558 49.2727 74.1485 49.002 73.9338 48.806C73.7192 48.6007 73.3925 48.498 72.9538 48.498C72.5525 48.498 72.2305 48.582 71.9878 48.75C71.7545 48.9087 71.6145 49.1327 71.5678 49.422H69.9158C69.9905 48.722 70.2985 48.1573 70.8398 47.728C71.3905 47.2987 72.0998 47.084 72.9678 47.084ZM72.3938 52.866C73.1405 52.866 73.7612 52.5533 74.2558 51.928V51.116H72.3098C71.9552 51.116 71.6845 51.1907 71.4978 51.34C71.3112 51.48 71.2178 51.6947 71.2178 51.984C71.2178 52.2733 71.3252 52.4927 71.5398 52.642C71.7545 52.7913 72.0392 52.866 72.3938 52.866ZM80.085 54.168C79.553 54.168 79.0536 54.0373 78.587 53.776C78.1296 53.5053 77.7563 53.1087 77.467 52.586C77.187 52.054 77.047 51.4147 77.047 50.668C77.047 49.8933 77.1963 49.2353 77.495 48.694C77.7936 48.1527 78.181 47.7513 78.657 47.49C79.1423 47.2193 79.6556 47.084 80.197 47.084C80.6076 47.084 81.0043 47.1633 81.387 47.322C81.779 47.4807 82.1103 47.728 82.381 48.064V43.92H83.935V54H82.381V53.118H82.171C81.947 53.4727 81.6483 53.7387 81.275 53.916C80.911 54.084 80.5143 54.168 80.085 54.168ZM80.505 52.712C81.0276 52.712 81.471 52.5347 81.835 52.18C82.199 51.8253 82.381 51.3073 82.381 50.626C82.381 49.9447 82.199 49.4267 81.835 49.072C81.471 48.7173 81.0276 48.54 80.505 48.54C79.9823 48.54 79.5343 48.7173 79.161 49.072C78.797 49.4173 78.615 49.9353 78.615 50.626C78.615 51.3167 78.797 51.8393 79.161 52.194C79.5343 52.5393 79.9823 52.712 80.505 52.712Z" fill="#1D1D1B"/>
<path d="M30.1069 31.8071H32.0089V23.2932H30.1069V31.8071ZM31.0541 22.1767C31.6499 22.1767 32.1158 21.6947 32.1158 21.0924C32.1158 20.4819 31.6499 20 31.0541 20C30.4659 20 30 20.4819 30 21.0924C30 21.6948 30.4659 22.1767 31.0541 22.1767ZM38.3414 20.024C35.1257 20.024 33.1091 22.3292 33.1091 26.016C33.1091 29.7028 35.1255 32 38.3414 32C41.5495 32 43.5662 29.7028 43.5662 26.016C43.5662 22.3292 41.5497 20.024 38.3414 20.024ZM38.3414 21.7911C40.3045 21.7911 41.5572 23.4296 41.5572 26.016C41.5572 28.5943 40.3045 30.2329 38.3414 30.2329C36.3707 30.2329 35.1257 28.5943 35.1257 26.016C35.1257 23.4297 36.3708 21.7911 38.3414 21.7911ZM44.3685 28.5461C44.4525 30.6828 46.1177 32 48.6536 32C51.3195 32 53 30.6184 53 28.4176C53 26.6908 52.0528 25.7189 49.8148 25.1808L48.5468 24.8755C47.1948 24.5382 46.6372 24.0884 46.6372 23.3173C46.6372 22.3535 47.4774 21.7109 48.7225 21.7109C49.9828 21.7109 50.8459 22.3615 50.9376 23.4458H52.8167C52.7708 21.4057 51.1668 20.0241 48.7378 20.0241C46.3393 20.0241 44.6359 21.4136 44.6359 23.4699C44.6359 25.1245 45.5983 26.1526 47.6301 26.6426L49.0584 26.996C50.4486 27.3414 51.0139 27.8233 51.0139 28.6587C51.0139 29.6225 50.0896 30.3133 48.7606 30.3133C47.4163 30.3133 46.4004 29.6145 46.2782 28.5462H44.3686L44.3685 28.5461Z" fill="#1D1D1B"/>
</svg>
