<svg width="84" height="69" viewBox="0 0 84 69" fill="none" xmlns="http://www.w3.org/2000/svg">
<path d="M20.1186 47.252H21.6726V48.05H21.8966C22.0553 47.7793 22.2886 47.5507 22.5966 47.364C22.914 47.1773 23.2873 47.084 23.7166 47.084C24.1086 47.084 24.468 47.1727 24.7946 47.35C25.1213 47.518 25.378 47.7653 25.5646 48.092H25.7886C25.9473 47.812 26.2086 47.574 26.5726 47.378C26.946 47.182 27.3753 47.084 27.8606 47.084C28.5326 47.084 29.088 47.3033 29.5266 47.742C29.9746 48.1807 30.1986 48.8293 30.1986 49.688V54H28.6446V49.996C28.6446 49.548 28.5326 49.2073 28.3086 48.974C28.0846 48.7407 27.7813 48.624 27.3986 48.624C26.9413 48.624 26.582 48.7873 26.3206 49.114C26.0686 49.4313 25.9426 49.8513 25.9426 50.374V54H24.3886V49.996C24.3886 49.548 24.2766 49.2073 24.0526 48.974C23.8286 48.7407 23.5253 48.624 23.1426 48.624C22.676 48.624 22.312 48.7873 22.0506 49.114C21.7986 49.4313 21.6726 49.8513 21.6726 50.374V54H20.1186V47.252ZM34.7247 47.084C35.5833 47.084 36.2693 47.2893 36.7827 47.7C37.3053 48.1013 37.5667 48.7127 37.5667 49.534V54H36.0127V53.426H35.7887C35.574 53.6407 35.2847 53.818 34.9207 53.958C34.566 54.098 34.1927 54.168 33.8007 54.168C33.054 54.168 32.466 53.9813 32.0367 53.608C31.6073 53.2347 31.3927 52.7353 31.3927 52.11C31.3927 51.4567 31.612 50.9433 32.0507 50.57C32.4893 50.1873 33.11 49.996 33.9127 49.996H36.0127V49.618C36.0127 49.2727 35.9053 49.002 35.6907 48.806C35.476 48.6007 35.1493 48.498 34.7107 48.498C34.3093 48.498 33.9873 48.582 33.7447 48.75C33.5113 48.9087 33.3713 49.1327 33.3247 49.422H31.6727C31.7473 48.722 32.0553 48.1573 32.5967 47.728C33.1473 47.2987 33.8567 47.084 34.7247 47.084ZM34.1507 52.866C34.8973 52.866 35.518 52.5533 36.0127 51.928V51.116H34.0667C33.712 51.116 33.4413 51.1907 33.2547 51.34C33.068 51.48 32.9747 51.6947 32.9747 51.984C32.9747 52.2733 33.082 52.4927 33.2967 52.642C33.5113 52.7913 33.796 52.866 34.1507 52.866ZM42.1918 54.168C41.5291 54.168 40.9411 54.0187 40.4278 53.72C39.9145 53.412 39.5131 52.9873 39.2238 52.446C38.9438 51.9047 38.8038 51.298 38.8038 50.626C38.8038 49.954 38.9438 49.3473 39.2238 48.806C39.5131 48.2647 39.9145 47.8447 40.4278 47.546C40.9411 47.238 41.5291 47.084 42.1918 47.084C43.0038 47.084 43.6945 47.3127 44.2638 47.77C44.8331 48.2273 45.1785 48.834 45.2998 49.59H43.7598C43.6571 49.2353 43.4705 48.9647 43.1998 48.778C42.9385 48.582 42.6025 48.484 42.1918 48.484C41.6411 48.484 41.1885 48.6753 40.8338 49.058C40.4885 49.4313 40.3158 49.954 40.3158 50.626C40.3158 51.3073 40.4931 51.8347 40.8478 52.208C41.2025 52.5813 41.6458 52.768 42.1778 52.768C42.5978 52.768 42.9385 52.6747 43.1998 52.488C43.4705 52.292 43.6571 52.0167 43.7598 51.662H45.2998C45.1785 52.418 44.8331 53.0247 44.2638 53.482C43.6945 53.9393 43.0038 54.168 42.1918 54.168ZM51.3194 54.168C50.442 54.168 49.6347 53.9673 48.8974 53.566C48.16 53.1553 47.572 52.5673 47.1334 51.802C46.704 51.0367 46.4894 50.136 46.4894 49.1C46.4894 48.064 46.704 47.1633 47.1334 46.398C47.572 45.6327 48.16 45.0493 48.8974 44.648C49.6347 44.2373 50.442 44.032 51.3194 44.032C52.1967 44.032 52.9994 44.2373 53.7274 44.648C54.4647 45.0493 55.048 45.6327 55.4774 46.398C55.916 47.1633 56.1354 48.064 56.1354 49.1C56.1354 50.136 55.916 51.0367 55.4774 51.802C55.048 52.5673 54.4647 53.1553 53.7274 53.566C52.9994 53.9673 52.1967 54.168 51.3194 54.168ZM51.3194 52.628C51.926 52.628 52.472 52.488 52.9574 52.208C53.452 51.928 53.8347 51.522 54.1054 50.99C54.3854 50.458 54.5254 49.828 54.5254 49.1C54.5254 48.372 54.3854 47.742 54.1054 47.21C53.8347 46.678 53.452 46.272 52.9574 45.992C52.472 45.712 51.926 45.572 51.3194 45.572C50.7034 45.572 50.1527 45.712 49.6674 45.992C49.182 46.272 48.7994 46.678 48.5194 47.21C48.2394 47.742 48.0994 48.372 48.0994 49.1C48.0994 49.828 48.2394 50.458 48.5194 50.99C48.7994 51.522 49.182 51.928 49.6674 52.208C50.1527 52.488 50.7034 52.628 51.3194 52.628ZM61.1558 54.168C60.3625 54.168 59.6718 54.0327 59.0838 53.762C58.4958 53.482 58.0385 53.0993 57.7118 52.614C57.3851 52.1193 57.2078 51.55 57.1798 50.906H58.8178C58.8738 51.4193 59.1025 51.844 59.5038 52.18C59.9145 52.516 60.4838 52.684 61.2118 52.684C61.8931 52.684 62.4065 52.5347 62.7518 52.236C63.1065 51.9373 63.2838 51.564 63.2838 51.116C63.2838 50.696 63.1485 50.374 62.8778 50.15C62.6071 49.9167 62.2385 49.7813 61.7718 49.744L60.4838 49.632C59.5785 49.5573 58.8505 49.296 58.2998 48.848C57.7491 48.4 57.4738 47.7793 57.4738 46.986C57.4738 46.398 57.6231 45.8847 57.9218 45.446C58.2205 44.998 58.6358 44.6527 59.1678 44.41C59.7091 44.158 60.3251 44.032 61.0158 44.032C62.0891 44.032 62.9431 44.2933 63.5778 44.816C64.2125 45.3387 64.5718 46.0573 64.6558 46.972H63.0178C62.9525 46.5333 62.7518 46.188 62.4158 45.936C62.0798 45.6747 61.6038 45.544 60.9878 45.544C60.3718 45.544 59.8958 45.67 59.5598 45.922C59.2331 46.1647 59.0698 46.482 59.0698 46.874C59.0698 47.266 59.2331 47.5647 59.5598 47.77C59.8865 47.966 60.3298 48.0873 60.8898 48.134L62.1078 48.232C62.9665 48.3067 63.6478 48.5773 64.1518 49.044C64.6558 49.5013 64.9078 50.1593 64.9078 51.018C64.9078 51.6527 64.7445 52.208 64.4178 52.684C64.1005 53.16 63.6571 53.5287 63.0878 53.79C62.5185 54.042 61.8745 54.168 61.1558 54.168Z" fill="white"/>
<path d="M15.9688 31.8067H18.0078V26.5834C18.0078 25.5532 18.6956 24.8047 19.6783 24.8047C20.6282 24.8047 21.2178 25.3922 21.2178 26.3419V31.8065H23.1995V26.535C23.1995 25.5129 23.8709 24.8046 24.8536 24.8046C25.8526 24.8046 26.4094 25.4002 26.4094 26.4465V31.8066H28.4484V25.9557C28.4484 24.2495 27.3266 23.1147 25.6151 23.1147C24.3622 23.1147 23.3305 23.7746 22.9127 24.8289H22.8636C22.5442 23.7344 21.668 23.1147 20.4398 23.1147C19.2606 23.1147 18.3435 23.7666 17.9668 24.7565H17.9258V23.2757H15.9688V31.8067L15.9688 31.8067ZM32.9116 30.4305C32.0272 30.4305 31.4377 29.9878 31.4377 29.2876C31.4377 28.6116 32.0027 28.177 32.9853 28.1126L34.9916 27.9919V28.6438C34.9916 29.674 34.0662 30.4305 32.9116 30.4305V30.4305ZM32.2975 31.9435C33.4111 31.9435 34.5003 31.3721 34.9998 30.4466H35.0408V31.8067H37.0061V25.9315C37.0061 24.2172 35.6058 23.0985 33.4522 23.0985C31.2412 23.0985 29.8574 24.2414 29.7673 25.8349H31.6589C31.7899 25.1266 32.404 24.6679 33.3703 24.6679C34.3775 24.6679 34.9917 25.183 34.9917 26.0763V26.688L32.6987 26.8167C30.5861 26.9455 29.3987 27.855 29.3987 29.368C29.3987 30.9052 30.6188 31.9435 32.2975 31.9435L32.2975 31.9435ZM45.9566 26.3178C45.8174 24.5231 44.4008 23.0985 42.108 23.0985C39.5859 23.0985 37.9481 24.8128 37.9481 27.541C37.9481 30.3097 39.5858 31.9755 42.1243 31.9755C44.3026 31.9755 45.8011 30.72 45.9648 28.8125H44.0404C43.8521 29.7782 43.1806 30.3577 42.1489 30.3577C40.855 30.3577 40.0198 29.3275 40.0198 27.5408C40.0198 25.7863 40.8469 24.7239 42.1325 24.7239C43.2216 24.7239 43.8685 25.408 44.0323 26.3175H45.9566L45.9566 26.3178ZM52.2542 20C48.8068 20 46.6448 22.3098 46.6448 26.004C46.6448 29.6982 48.8066 32 52.2542 32C55.6934 32 57.8553 29.6982 57.8553 26.004C57.8553 22.3098 55.6936 20 52.2542 20ZM52.2542 21.7706C54.3586 21.7706 55.7015 23.4124 55.7015 26.004C55.7015 28.5874 54.3586 30.2293 52.2542 30.2293C50.1415 30.2293 48.8068 28.5875 48.8068 26.004C48.8068 23.4125 50.1415 21.7706 52.2542 21.7706ZM58.7154 28.5392C58.8055 30.6801 60.5906 32 63.3093 32C66.1672 32 67.9688 30.6157 67.9688 28.4104C67.9688 26.6801 66.9533 25.7063 64.5541 25.1671L63.1947 24.8612C61.7453 24.5232 61.1476 24.0725 61.1476 23.2999C61.1476 22.3341 62.0483 21.6903 63.3831 21.6903C64.7342 21.6903 65.6595 22.3422 65.7578 23.4287H67.7722C67.7231 21.3844 66.0034 20.0001 63.3995 20.0001C60.8282 20.0001 59.0021 21.3924 59.0021 23.4528C59.0021 25.1107 60.0338 26.1409 62.2119 26.6319L63.7432 26.986C65.2336 27.3321 65.8395 27.8149 65.8395 28.652C65.8395 29.6177 64.8487 30.3099 63.424 30.3099C61.9827 30.3099 60.8937 29.6097 60.7627 28.5393H58.7155L58.7154 28.5392Z" fill="white"/>
</svg>
