<svg width="83" height="69" viewBox="0 0 83 69" fill="none" xmlns="http://www.w3.org/2000/svg">
<path d="M19.1499 47.252H20.7039V48.05H20.9279C21.0865 47.7793 21.3199 47.5507 21.6279 47.364C21.9452 47.1773 22.3185 47.084 22.7479 47.084C23.1399 47.084 23.4992 47.1727 23.8259 47.35C24.1525 47.518 24.4092 47.7653 24.5959 48.092H24.8199C24.9785 47.812 25.2399 47.574 25.6039 47.378C25.9772 47.182 26.4065 47.084 26.8919 47.084C27.5639 47.084 28.1192 47.3033 28.5579 47.742C29.0059 48.1807 29.2299 48.8293 29.2299 49.688V54H27.6759V49.996C27.6759 49.548 27.5639 49.2073 27.3399 48.974C27.1159 48.7407 26.8125 48.624 26.4299 48.624C25.9725 48.624 25.6132 48.7873 25.3519 49.114C25.0999 49.4313 24.9739 49.8513 24.9739 50.374V54H23.4199V49.996C23.4199 49.548 23.3079 49.2073 23.0839 48.974C22.8599 48.7407 22.5565 48.624 22.1739 48.624C21.7072 48.624 21.3432 48.7873 21.0819 49.114C20.8299 49.4313 20.7039 49.8513 20.7039 50.374V54H19.1499V47.252ZM33.7559 47.084C34.6146 47.084 35.3006 47.2893 35.8139 47.7C36.3366 48.1013 36.5979 48.7127 36.5979 49.534V54H35.0439V53.426H34.8199C34.6053 53.6407 34.3159 53.818 33.9519 53.958C33.5973 54.098 33.2239 54.168 32.8319 54.168C32.0853 54.168 31.4973 53.9813 31.0679 53.608C30.6386 53.2347 30.4239 52.7353 30.4239 52.11C30.4239 51.4567 30.6433 50.9433 31.0819 50.57C31.5206 50.1873 32.1413 49.996 32.9439 49.996H35.0439V49.618C35.0439 49.2727 34.9366 49.002 34.7219 48.806C34.5073 48.6007 34.1806 48.498 33.7419 48.498C33.3406 48.498 33.0186 48.582 32.7759 48.75C32.5426 48.9087 32.4026 49.1327 32.3559 49.422H30.7039C30.7786 48.722 31.0866 48.1573 31.6279 47.728C32.1786 47.2987 32.8879 47.084 33.7559 47.084ZM33.1819 52.866C33.9286 52.866 34.5493 52.5533 35.0439 51.928V51.116H33.0979C32.7433 51.116 32.4726 51.1907 32.2859 51.34C32.0993 51.48 32.0059 51.6947 32.0059 51.984C32.0059 52.2733 32.1133 52.4927 32.3279 52.642C32.5426 52.7913 32.8273 52.866 33.1819 52.866ZM41.2231 54.168C40.5604 54.168 39.9724 54.0187 39.4591 53.72C38.9457 53.412 38.5444 52.9873 38.2551 52.446C37.9751 51.9047 37.8351 51.298 37.8351 50.626C37.8351 49.954 37.9751 49.3473 38.2551 48.806C38.5444 48.2647 38.9457 47.8447 39.4591 47.546C39.9724 47.238 40.5604 47.084 41.2231 47.084C42.0351 47.084 42.7257 47.3127 43.2951 47.77C43.8644 48.2273 44.2097 48.834 44.3311 49.59H42.7911C42.6884 49.2353 42.5017 48.9647 42.2311 48.778C41.9697 48.582 41.6337 48.484 41.2231 48.484C40.6724 48.484 40.2197 48.6753 39.8651 49.058C39.5197 49.4313 39.3471 49.954 39.3471 50.626C39.3471 51.3073 39.5244 51.8347 39.8791 52.208C40.2337 52.5813 40.6771 52.768 41.2091 52.768C41.6291 52.768 41.9697 52.6747 42.2311 52.488C42.5017 52.292 42.6884 52.0167 42.7911 51.662H44.3311C44.2097 52.418 43.8644 53.0247 43.2951 53.482C42.7257 53.9393 42.0351 54.168 41.2231 54.168ZM50.3506 54.168C49.4733 54.168 48.666 53.9673 47.9286 53.566C47.1913 53.1553 46.6033 52.5673 46.1646 51.802C45.7353 51.0367 45.5206 50.136 45.5206 49.1C45.5206 48.064 45.7353 47.1633 46.1646 46.398C46.6033 45.6327 47.1913 45.0493 47.9286 44.648C48.666 44.2373 49.4733 44.032 50.3506 44.032C51.228 44.032 52.0306 44.2373 52.7586 44.648C53.496 45.0493 54.0793 45.6327 54.5086 46.398C54.9473 47.1633 55.1666 48.064 55.1666 49.1C55.1666 50.136 54.9473 51.0367 54.5086 51.802C54.0793 52.5673 53.496 53.1553 52.7586 53.566C52.0306 53.9673 51.228 54.168 50.3506 54.168ZM50.3506 52.628C50.9573 52.628 51.5033 52.488 51.9886 52.208C52.4833 51.928 52.866 51.522 53.1366 50.99C53.4166 50.458 53.5566 49.828 53.5566 49.1C53.5566 48.372 53.4166 47.742 53.1366 47.21C52.866 46.678 52.4833 46.272 51.9886 45.992C51.5033 45.712 50.9573 45.572 50.3506 45.572C49.7346 45.572 49.184 45.712 48.6986 45.992C48.2133 46.272 47.8306 46.678 47.5506 47.21C47.2706 47.742 47.1306 48.372 47.1306 49.1C47.1306 49.828 47.2706 50.458 47.5506 50.99C47.8306 51.522 48.2133 51.928 48.6986 52.208C49.184 52.488 49.7346 52.628 50.3506 52.628ZM60.187 54.168C59.3937 54.168 58.703 54.0327 58.115 53.762C57.527 53.482 57.0697 53.0993 56.743 52.614C56.4164 52.1193 56.239 51.55 56.211 50.906H57.849C57.905 51.4193 58.1337 51.844 58.535 52.18C58.9457 52.516 59.515 52.684 60.243 52.684C60.9244 52.684 61.4377 52.5347 61.783 52.236C62.1377 51.9373 62.315 51.564 62.315 51.116C62.315 50.696 62.1797 50.374 61.909 50.15C61.6384 49.9167 61.2697 49.7813 60.803 49.744L59.515 49.632C58.6097 49.5573 57.8817 49.296 57.331 48.848C56.7804 48.4 56.505 47.7793 56.505 46.986C56.505 46.398 56.6544 45.8847 56.953 45.446C57.2517 44.998 57.667 44.6527 58.199 44.41C58.7404 44.158 59.3564 44.032 60.047 44.032C61.1204 44.032 61.9744 44.2933 62.609 44.816C63.2437 45.3387 63.603 46.0573 63.687 46.972H62.049C61.9837 46.5333 61.783 46.188 61.447 45.936C61.111 45.6747 60.635 45.544 60.019 45.544C59.403 45.544 58.927 45.67 58.591 45.922C58.2644 46.1647 58.101 46.482 58.101 46.874C58.101 47.266 58.2644 47.5647 58.591 47.77C58.9177 47.966 59.361 48.0873 59.921 48.134L61.139 48.232C61.9977 48.3067 62.679 48.5773 63.183 49.044C63.687 49.5013 63.939 50.1593 63.939 51.018C63.939 51.6527 63.7757 52.208 63.449 52.684C63.1317 53.16 62.6884 53.5287 62.119 53.79C61.5497 54.042 60.9057 54.168 60.187 54.168Z" fill="#00A88E"/>
<path d="M15 31.8067H17.039V26.5834C17.039 25.5532 17.7269 24.8047 18.7096 24.8047C19.6594 24.8047 20.249 25.3922 20.249 26.3419V31.8065H22.2307V26.535C22.2307 25.5129 22.9022 24.8046 23.8848 24.8046C24.8838 24.8046 25.4407 25.4002 25.4407 26.4465V31.8066H27.4797V25.9557C27.4797 24.2495 26.3578 23.1147 24.6463 23.1147C23.3934 23.1147 22.3617 23.7746 21.944 24.8289H21.8948C21.5755 23.7344 20.6993 23.1147 19.4711 23.1147C18.2919 23.1147 17.3747 23.7666 16.998 24.7565H16.9571V23.2757H15V31.8067L15 31.8067ZM31.9429 30.4305C31.0585 30.4305 30.4689 29.9878 30.4689 29.2876C30.4689 28.6116 31.0339 28.177 32.0166 28.1126L34.0228 27.9919V28.6438C34.0228 29.674 33.0975 30.4305 31.9429 30.4305V30.4305ZM31.3287 31.9435C32.4424 31.9435 33.5315 31.3721 34.0311 30.4466H34.072V31.8067H36.0373V25.9315C36.0373 24.2172 34.637 23.0985 32.4834 23.0985C30.2724 23.0985 28.8887 24.2414 28.7985 25.8349H30.6901C30.8211 25.1266 31.4353 24.6679 32.4016 24.6679C33.4088 24.6679 34.0229 25.183 34.0229 26.0763V26.688L31.73 26.8167C29.6173 26.9455 28.43 27.855 28.43 29.368C28.43 30.9052 29.6501 31.9435 31.3288 31.9435L31.3287 31.9435ZM44.9879 26.3178C44.8487 24.5231 43.432 23.0985 41.1392 23.0985C38.6172 23.0985 36.9793 24.8128 36.9793 27.541C36.9793 30.3097 38.6171 31.9755 41.1556 31.9755C43.3339 31.9755 44.8323 30.72 44.996 28.8125H43.0717C42.8833 29.7782 42.2119 30.3577 41.1801 30.3577C39.8863 30.3577 39.0511 29.3275 39.0511 27.5408C39.0511 25.7863 39.8781 24.7239 41.1638 24.7239C42.2528 24.7239 42.8998 25.408 43.0635 26.3175H44.9879L44.9879 26.3178ZM51.2854 20C47.838 20 45.6761 22.3098 45.6761 26.004C45.6761 29.6982 47.8378 32 51.2854 32C54.7246 32 56.8865 29.6982 56.8865 26.004C56.8865 22.3098 54.7248 20 51.2854 20V20ZM51.2854 21.7706C53.3899 21.7706 54.7328 23.4124 54.7328 26.004C54.7328 28.5874 53.3899 30.2293 51.2854 30.2293C49.1727 30.2293 47.838 28.5875 47.838 26.004C47.838 23.4125 49.1728 21.7706 51.2854 21.7706V21.7706ZM57.7467 28.5392C57.8367 30.6801 59.6219 32 62.3405 32C65.1984 32 67 30.6157 67 28.4104C67 26.6801 65.9846 25.7063 63.5853 25.1671L62.226 24.8612C60.7766 24.5232 60.1788 24.0725 60.1788 23.2999C60.1788 22.3341 61.0796 21.6903 62.4143 21.6903C63.7654 21.6903 64.6907 22.3422 64.789 23.4287H66.8034C66.7543 21.3844 65.0347 20.0001 62.4307 20.0001C59.8594 20.0001 58.0333 21.3924 58.0333 23.4528C58.0333 25.1107 59.0651 26.1409 61.2432 26.6319L62.7745 26.986C64.2648 27.3321 64.8708 27.8149 64.8708 28.652C64.8708 29.6177 63.8799 30.3099 62.4552 30.3099C61.014 30.3099 59.925 29.6097 59.7939 28.5393H57.7468L57.7467 28.5392Z" fill="#00A88E"/>
</svg>
