<svg width="84" height="69" viewBox="0 0 84 69" fill="none" xmlns="http://www.w3.org/2000/svg">
<path d="M12.5626 45.642V48.736H17.3926V50.178H12.5626V54H10.9806V44.2H17.6726V45.642H12.5626ZM19.0307 47.252H20.5847V48.12H20.8087C20.9394 47.8213 21.1307 47.588 21.3827 47.42C21.6441 47.2427 21.9754 47.154 22.3767 47.154H23.3007V48.694H22.2647C21.6954 48.694 21.2707 48.862 20.9907 49.198C20.7201 49.5247 20.5847 49.9913 20.5847 50.598V54H19.0307V47.252ZM27.3914 54.168C26.7194 54.168 26.122 54.0187 25.5994 53.72C25.086 53.412 24.6894 52.992 24.4094 52.46C24.1294 51.9187 23.9894 51.312 23.9894 50.64C23.9894 49.968 24.1294 49.3613 24.4094 48.82C24.6894 48.2787 25.086 47.854 25.5994 47.546C26.1127 47.238 26.7054 47.084 27.3774 47.084C28.012 47.084 28.572 47.2193 29.0574 47.49C29.552 47.7607 29.9347 48.1387 30.2054 48.624C30.476 49.1 30.6114 49.6413 30.6114 50.248V51.046H25.5434C25.6087 51.606 25.8047 52.0353 26.1314 52.334C26.458 52.6233 26.8734 52.768 27.3774 52.768C27.7787 52.768 28.11 52.684 28.3714 52.516C28.6327 52.3387 28.8194 52.1053 28.9314 51.816H30.4854C30.2987 52.5253 29.9347 53.0947 29.3934 53.524C28.852 53.9533 28.1847 54.168 27.3914 54.168ZM29.0994 49.898C29.0807 49.4687 28.9174 49.114 28.6094 48.834C28.3107 48.5447 27.9047 48.4 27.3914 48.4C26.934 48.4 26.542 48.5307 26.2154 48.792C25.898 49.0533 25.688 49.422 25.5854 49.898H29.0994ZM35.1023 54.168C34.4303 54.168 33.833 54.0187 33.3103 53.72C32.797 53.412 32.4003 52.992 32.1203 52.46C31.8403 51.9187 31.7003 51.312 31.7003 50.64C31.7003 49.968 31.8403 49.3613 32.1203 48.82C32.4003 48.2787 32.797 47.854 33.3103 47.546C33.8236 47.238 34.4163 47.084 35.0883 47.084C35.723 47.084 36.283 47.2193 36.7683 47.49C37.263 47.7607 37.6456 48.1387 37.9163 48.624C38.187 49.1 38.3223 49.6413 38.3223 50.248V51.046H33.2543C33.3196 51.606 33.5156 52.0353 33.8423 52.334C34.169 52.6233 34.5843 52.768 35.0883 52.768C35.4896 52.768 35.821 52.684 36.0823 52.516C36.3436 52.3387 36.5303 52.1053 36.6423 51.816H38.1963C38.0096 52.5253 37.6456 53.0947 37.1043 53.524C36.563 53.9533 35.8956 54.168 35.1023 54.168ZM36.8103 49.898C36.7916 49.4687 36.6283 49.114 36.3203 48.834C36.0216 48.5447 35.6156 48.4 35.1023 48.4C34.645 48.4 34.253 48.5307 33.9263 48.792C33.609 49.0533 33.399 49.422 33.2963 49.898H36.8103ZM45.7634 54C45.0634 54 44.5174 53.818 44.1254 53.454C43.7334 53.0807 43.5374 52.516 43.5374 51.76V48.68H42.1514V47.252H43.5374V45.432H45.0914V47.252H47.2054V48.68H45.0914V51.522C45.0914 51.8673 45.1707 52.124 45.3294 52.292C45.4974 52.4507 45.7587 52.53 46.1134 52.53H47.1354V54H45.7634ZM51.6336 54.168C50.9429 54.168 50.3316 54.0093 49.7996 53.692C49.2769 53.3747 48.8709 52.95 48.5816 52.418C48.2922 51.8767 48.1476 51.2793 48.1476 50.626C48.1476 49.9727 48.2922 49.38 48.5816 48.848C48.8709 48.3067 49.2769 47.8773 49.7996 47.56C50.3316 47.2427 50.9429 47.084 51.6336 47.084C52.3242 47.084 52.9356 47.2427 53.4676 47.56C53.9996 47.8773 54.4102 48.3067 54.6996 48.848C54.9889 49.38 55.1336 49.9727 55.1336 50.626C55.1336 51.2793 54.9889 51.8767 54.6996 52.418C54.4102 52.95 53.9996 53.3747 53.4676 53.692C52.9356 54.0093 52.3242 54.168 51.6336 54.168ZM51.6336 52.712C52.1749 52.712 52.6322 52.5253 53.0056 52.152C53.3789 51.7693 53.5656 51.2607 53.5656 50.626C53.5656 49.9913 53.3789 49.4873 53.0056 49.114C52.6322 48.7313 52.1749 48.54 51.6336 48.54C51.0922 48.54 50.6349 48.7313 50.2616 49.114C49.8882 49.4873 49.7016 49.9913 49.7016 50.626C49.7016 51.2607 49.8882 51.7693 50.2616 52.152C50.6349 52.5253 51.0922 52.712 51.6336 52.712ZM59.7136 54.168C59.023 54.168 58.4116 54.0093 57.8796 53.692C57.357 53.3747 56.951 52.95 56.6616 52.418C56.3723 51.8767 56.2276 51.2793 56.2276 50.626C56.2276 49.9727 56.3723 49.38 56.6616 48.848C56.951 48.3067 57.357 47.8773 57.8796 47.56C58.4116 47.2427 59.023 47.084 59.7136 47.084C60.4043 47.084 61.0156 47.2427 61.5476 47.56C62.0796 47.8773 62.4903 48.3067 62.7796 48.848C63.069 49.38 63.2136 49.9727 63.2136 50.626C63.2136 51.2793 63.069 51.8767 62.7796 52.418C62.4903 52.95 62.0796 53.3747 61.5476 53.692C61.0156 54.0093 60.4043 54.168 59.7136 54.168ZM59.7136 52.712C60.255 52.712 60.7123 52.5253 61.0856 52.152C61.459 51.7693 61.6456 51.2607 61.6456 50.626C61.6456 49.9913 61.459 49.4873 61.0856 49.114C60.7123 48.7313 60.255 48.54 59.7136 48.54C59.1723 48.54 58.715 48.7313 58.3416 49.114C57.9683 49.4873 57.7816 49.9913 57.7816 50.626C57.7816 51.2607 57.9683 51.7693 58.3416 52.152C58.715 52.5253 59.1723 52.712 59.7136 52.712ZM64.5317 43.92H66.0857V54H64.5317V43.92ZM70.3236 54.168C69.4089 54.168 68.6856 53.9533 68.1536 53.524C67.6309 53.0947 67.3462 52.544 67.2996 51.872H68.8676C68.9142 52.152 69.0682 52.3807 69.3296 52.558C69.5909 52.7353 69.9316 52.824 70.3516 52.824C70.8089 52.824 71.1449 52.7447 71.3596 52.586C71.5836 52.4273 71.6956 52.2173 71.6956 51.956C71.6956 51.704 71.6162 51.5267 71.4576 51.424C71.2989 51.3213 71.0609 51.256 70.7436 51.228L69.5816 51.116C68.2002 50.976 67.5096 50.3553 67.5096 49.254C67.5096 48.61 67.7616 48.0873 68.2656 47.686C68.7696 47.2847 69.4416 47.084 70.2816 47.084C71.1216 47.084 71.7749 47.266 72.2416 47.63C72.7082 47.994 72.9649 48.498 73.0116 49.142H71.5136C71.4762 48.918 71.3456 48.736 71.1216 48.596C70.9069 48.456 70.6222 48.386 70.2676 48.386C69.9036 48.386 69.6096 48.456 69.3856 48.596C69.1709 48.7267 69.0636 48.9227 69.0636 49.184C69.0636 49.408 69.1569 49.576 69.3436 49.688C69.5302 49.8 69.8196 49.87 70.2116 49.898L71.2196 49.996C71.8822 50.052 72.3862 50.2293 72.7316 50.528C73.0769 50.8173 73.2496 51.2747 73.2496 51.9C73.2496 52.5907 72.9929 53.1413 72.4796 53.552C71.9662 53.9627 71.2476 54.168 70.3236 54.168Z" fill="white"/>
<path d="M49.1264 27.175L43.1514 33.15C42.9966 33.305 42.8128 33.4279 42.6105 33.5118C42.4082 33.5956 42.1913 33.6388 41.9723 33.6388C41.7532 33.6388 41.5364 33.5956 41.334 33.5118C41.1317 33.4279 40.9479 33.305 40.7931 33.15L33.6348 26V17.6667H41.9681L49.1264 24.825C49.4369 25.1373 49.6111 25.5597 49.6111 26C49.6111 26.4403 49.4369 26.8627 49.1264 27.175V27.175Z" stroke="white" stroke-width="2" stroke-linecap="round" stroke-linejoin="round"/>
<path d="M37.8027 21.8333H37.8115" stroke="white" stroke-width="2" stroke-linecap="round" stroke-linejoin="round"/>
</svg>
