<svg width="83" height="69" viewBox="0 0 83 69" fill="none" xmlns="http://www.w3.org/2000/svg">
<path d="M11.5939 45.642V48.736H16.4239V50.178H11.5939V54H10.0119V44.2H16.7039V45.642H11.5939ZM18.062 47.252H19.616V48.12H19.84C19.9707 47.8213 20.162 47.588 20.414 47.42C20.6753 47.2427 21.0067 47.154 21.408 47.154H22.332V48.694H21.296C20.7267 48.694 20.302 48.862 20.022 49.198C19.7513 49.5247 19.616 49.9913 19.616 50.598V54H18.062V47.252ZM26.4226 54.168C25.7506 54.168 25.1533 54.0187 24.6306 53.72C24.1173 53.412 23.7206 52.992 23.4406 52.46C23.1606 51.9187 23.0206 51.312 23.0206 50.64C23.0206 49.968 23.1606 49.3613 23.4406 48.82C23.7206 48.2787 24.1173 47.854 24.6306 47.546C25.1439 47.238 25.7366 47.084 26.4086 47.084C27.0433 47.084 27.6033 47.2193 28.0886 47.49C28.5833 47.7607 28.9659 48.1387 29.2366 48.624C29.5073 49.1 29.6426 49.6413 29.6426 50.248V51.046H24.5746C24.6399 51.606 24.8359 52.0353 25.1626 52.334C25.4893 52.6233 25.9046 52.768 26.4086 52.768C26.8099 52.768 27.1413 52.684 27.4026 52.516C27.6639 52.3387 27.8506 52.1053 27.9626 51.816H29.5166C29.3299 52.5253 28.9659 53.0947 28.4246 53.524C27.8833 53.9533 27.2159 54.168 26.4226 54.168ZM28.1306 49.898C28.1119 49.4687 27.9486 49.114 27.6406 48.834C27.3419 48.5447 26.9359 48.4 26.4226 48.4C25.9653 48.4 25.5733 48.5307 25.2466 48.792C24.9293 49.0533 24.7193 49.422 24.6166 49.898H28.1306ZM34.1335 54.168C33.4615 54.168 32.8642 54.0187 32.3415 53.72C31.8282 53.412 31.4315 52.992 31.1515 52.46C30.8715 51.9187 30.7315 51.312 30.7315 50.64C30.7315 49.968 30.8715 49.3613 31.1515 48.82C31.4315 48.2787 31.8282 47.854 32.3415 47.546C32.8549 47.238 33.4475 47.084 34.1195 47.084C34.7542 47.084 35.3142 47.2193 35.7995 47.49C36.2942 47.7607 36.6769 48.1387 36.9475 48.624C37.2182 49.1 37.3535 49.6413 37.3535 50.248V51.046H32.2855C32.3509 51.606 32.5469 52.0353 32.8735 52.334C33.2002 52.6233 33.6155 52.768 34.1195 52.768C34.5209 52.768 34.8522 52.684 35.1135 52.516C35.3749 52.3387 35.5615 52.1053 35.6735 51.816H37.2275C37.0409 52.5253 36.6769 53.0947 36.1355 53.524C35.5942 53.9533 34.9269 54.168 34.1335 54.168ZM35.8415 49.898C35.8229 49.4687 35.6595 49.114 35.3515 48.834C35.0529 48.5447 34.6469 48.4 34.1335 48.4C33.6762 48.4 33.2842 48.5307 32.9575 48.792C32.6402 49.0533 32.4302 49.422 32.3275 49.898H35.8415ZM44.7947 54C44.0947 54 43.5487 53.818 43.1567 53.454C42.7647 53.0807 42.5687 52.516 42.5687 51.76V48.68H41.1827V47.252H42.5687V45.432H44.1227V47.252H46.2367V48.68H44.1227V51.522C44.1227 51.8673 44.202 52.124 44.3607 52.292C44.5287 52.4507 44.79 52.53 45.1447 52.53H46.1667V54H44.7947ZM50.6648 54.168C49.9741 54.168 49.3628 54.0093 48.8308 53.692C48.3081 53.3747 47.9021 52.95 47.6128 52.418C47.3235 51.8767 47.1788 51.2793 47.1788 50.626C47.1788 49.9727 47.3235 49.38 47.6128 48.848C47.9021 48.3067 48.3081 47.8773 48.8308 47.56C49.3628 47.2427 49.9741 47.084 50.6648 47.084C51.3555 47.084 51.9668 47.2427 52.4988 47.56C53.0308 47.8773 53.4415 48.3067 53.7308 48.848C54.0201 49.38 54.1648 49.9727 54.1648 50.626C54.1648 51.2793 54.0201 51.8767 53.7308 52.418C53.4415 52.95 53.0308 53.3747 52.4988 53.692C51.9668 54.0093 51.3555 54.168 50.6648 54.168ZM50.6648 52.712C51.2061 52.712 51.6635 52.5253 52.0368 52.152C52.4101 51.7693 52.5968 51.2607 52.5968 50.626C52.5968 49.9913 52.4101 49.4873 52.0368 49.114C51.6635 48.7313 51.2061 48.54 50.6648 48.54C50.1235 48.54 49.6661 48.7313 49.2928 49.114C48.9195 49.4873 48.7328 49.9913 48.7328 50.626C48.7328 51.2607 48.9195 51.7693 49.2928 52.152C49.6661 52.5253 50.1235 52.712 50.6648 52.712ZM58.7449 54.168C58.0542 54.168 57.4429 54.0093 56.9109 53.692C56.3882 53.3747 55.9822 52.95 55.6929 52.418C55.4036 51.8767 55.2589 51.2793 55.2589 50.626C55.2589 49.9727 55.4036 49.38 55.6929 48.848C55.9822 48.3067 56.3882 47.8773 56.9109 47.56C57.4429 47.2427 58.0542 47.084 58.7449 47.084C59.4356 47.084 60.0469 47.2427 60.5789 47.56C61.1109 47.8773 61.5216 48.3067 61.8109 48.848C62.1002 49.38 62.2449 49.9727 62.2449 50.626C62.2449 51.2793 62.1002 51.8767 61.8109 52.418C61.5216 52.95 61.1109 53.3747 60.5789 53.692C60.0469 54.0093 59.4356 54.168 58.7449 54.168ZM58.7449 52.712C59.2862 52.712 59.7436 52.5253 60.1169 52.152C60.4902 51.7693 60.6769 51.2607 60.6769 50.626C60.6769 49.9913 60.4902 49.4873 60.1169 49.114C59.7436 48.7313 59.2862 48.54 58.7449 48.54C58.2036 48.54 57.7462 48.7313 57.3729 49.114C56.9996 49.4873 56.8129 49.9913 56.8129 50.626C56.8129 51.2607 56.9996 51.7693 57.3729 52.152C57.7462 52.5253 58.2036 52.712 58.7449 52.712ZM63.563 43.92H65.117V54H63.563V43.92ZM69.3548 54.168C68.4401 54.168 67.7168 53.9533 67.1848 53.524C66.6621 53.0947 66.3775 52.544 66.3308 51.872H67.8988C67.9455 52.152 68.0995 52.3807 68.3608 52.558C68.6221 52.7353 68.9628 52.824 69.3828 52.824C69.8401 52.824 70.1761 52.7447 70.3908 52.586C70.6148 52.4273 70.7268 52.2173 70.7268 51.956C70.7268 51.704 70.6475 51.5267 70.4888 51.424C70.3301 51.3213 70.0921 51.256 69.7748 51.228L68.6128 51.116C67.2315 50.976 66.5408 50.3553 66.5408 49.254C66.5408 48.61 66.7928 48.0873 67.2968 47.686C67.8008 47.2847 68.4728 47.084 69.3128 47.084C70.1528 47.084 70.8061 47.266 71.2728 47.63C71.7395 47.994 71.9961 48.498 72.0428 49.142H70.5448C70.5075 48.918 70.3768 48.736 70.1528 48.596C69.9381 48.456 69.6535 48.386 69.2988 48.386C68.9348 48.386 68.6408 48.456 68.4168 48.596C68.2021 48.7267 68.0948 48.9227 68.0948 49.184C68.0948 49.408 68.1881 49.576 68.3748 49.688C68.5615 49.8 68.8508 49.87 69.2428 49.898L70.2508 49.996C70.9135 50.052 71.4175 50.2293 71.7628 50.528C72.1081 50.8173 72.2808 51.2747 72.2808 51.9C72.2808 52.5907 72.0241 53.1413 71.5108 53.552C70.9975 53.9627 70.2788 54.168 69.3548 54.168Z" fill="#1D1D1B"/>
<path d="M48.1577 27.1751L42.1827 33.1501C42.0279 33.305 41.8441 33.428 41.6417 33.5118C41.4394 33.5957 41.2225 33.6389 41.0035 33.6389C40.7845 33.6389 40.5676 33.5957 40.3653 33.5118C40.163 33.428 39.9791 33.305 39.8243 33.1501L32.666 26.0001V17.6667H40.9993L48.1577 24.8251C48.4681 25.1374 48.6423 25.5598 48.6423 26.0001C48.6423 26.4404 48.4681 26.8628 48.1577 27.1751V27.1751Z" stroke="black" stroke-width="2" stroke-linecap="round" stroke-linejoin="round"/>
<path d="M36.834 21.8333H36.8427" stroke="black" stroke-width="2" stroke-linecap="round" stroke-linejoin="round"/>
</svg>
