<svg width="84" height="69" viewBox="0 0 84 69" fill="none" xmlns="http://www.w3.org/2000/svg">
<path d="M13.6095 44.2H15.3035L16.9835 51.564C17.0395 51.7973 17.0768 52.0353 17.0955 52.278H17.3195C17.3568 51.942 17.3941 51.704 17.4315 51.564L19.2795 44.2H20.9035L22.7515 51.564C22.8075 51.7973 22.8448 52.0353 22.8635 52.278H23.0875C23.1248 51.942 23.1621 51.704 23.1995 51.564L24.8795 44.2H26.5735L24.1515 54H21.7855L20.3715 48.344C20.2968 48.0173 20.2408 47.6487 20.2035 47.238H19.9795C19.9421 47.6487 19.8861 48.0173 19.8115 48.344L18.3975 54H16.0315L13.6095 44.2ZM27.5346 44.284H29.2146V45.95H27.5346V44.284ZM27.6046 47.252H29.1586V54H27.6046V47.252ZM30.6792 47.252H32.2332V48.05H32.4572C32.6158 47.7793 32.8678 47.5507 33.2132 47.364C33.5585 47.1773 33.9738 47.084 34.4592 47.084C35.1685 47.084 35.7612 47.2987 36.2372 47.728C36.7132 48.148 36.9512 48.7967 36.9512 49.674V54H35.3972V50.164C35.3972 49.6507 35.2572 49.268 34.9772 49.016C34.7065 48.7547 34.3518 48.624 33.9132 48.624C33.3812 48.624 32.9658 48.792 32.6672 49.128C32.3778 49.464 32.2332 49.9213 32.2332 50.5V54H30.6792V47.252ZM41.2188 54.168C40.6868 54.168 40.1874 54.0373 39.7208 53.776C39.2634 53.5053 38.8901 53.1087 38.6008 52.586C38.3208 52.054 38.1808 51.4147 38.1808 50.668C38.1808 49.8933 38.3301 49.2353 38.6288 48.694C38.9274 48.1527 39.3148 47.7513 39.7908 47.49C40.2761 47.2193 40.7894 47.084 41.3308 47.084C41.7414 47.084 42.1381 47.1633 42.5208 47.322C42.9128 47.4807 43.2441 47.728 43.5148 48.064V43.92H45.0688V54H43.5148V53.118H43.3048C43.0808 53.4727 42.7821 53.7387 42.4088 53.916C42.0448 54.084 41.6481 54.168 41.2188 54.168ZM41.6388 52.712C42.1614 52.712 42.6048 52.5347 42.9688 52.18C43.3328 51.8253 43.5148 51.3073 43.5148 50.626C43.5148 49.9447 43.3328 49.4267 42.9688 49.072C42.6048 48.7173 42.1614 48.54 41.6388 48.54C41.1161 48.54 40.6681 48.7173 40.2948 49.072C39.9308 49.4173 39.7488 49.9353 39.7488 50.626C39.7488 51.3167 39.9308 51.8393 40.2948 52.194C40.6681 52.5393 41.1161 52.712 41.6388 52.712ZM49.8699 54.168C49.1792 54.168 48.5679 54.0093 48.0359 53.692C47.5132 53.3747 47.1072 52.95 46.8179 52.418C46.5286 51.8767 46.3839 51.2793 46.3839 50.626C46.3839 49.9727 46.5286 49.38 46.8179 48.848C47.1072 48.3067 47.5132 47.8773 48.0359 47.56C48.5679 47.2427 49.1792 47.084 49.8699 47.084C50.5606 47.084 51.1719 47.2427 51.7039 47.56C52.2359 47.8773 52.6466 48.3067 52.9359 48.848C53.2252 49.38 53.3699 49.9727 53.3699 50.626C53.3699 51.2793 53.2252 51.8767 52.9359 52.418C52.6466 52.95 52.2359 53.3747 51.7039 53.692C51.1719 54.0093 50.5606 54.168 49.8699 54.168ZM49.8699 52.712C50.4112 52.712 50.8686 52.5253 51.2419 52.152C51.6152 51.7693 51.8019 51.2607 51.8019 50.626C51.8019 49.9913 51.6152 49.4873 51.2419 49.114C50.8686 48.7313 50.4112 48.54 49.8699 48.54C49.3286 48.54 48.8712 48.7313 48.4979 49.114C48.1246 49.4873 47.9379 49.9913 47.9379 50.626C47.9379 51.2607 48.1246 51.7693 48.4979 52.152C48.8712 52.5253 49.3286 52.712 49.8699 52.712ZM53.8562 47.252H55.3962L56.4602 51.284C56.5348 51.5453 56.5955 51.844 56.6422 52.18H56.8662C56.9128 51.9 56.9735 51.6013 57.0482 51.284L58.1542 47.252H59.5122L60.6042 51.284C60.6788 51.5453 60.7395 51.844 60.7862 52.18H61.0102C61.0382 51.9933 61.0988 51.6947 61.1922 51.284L62.2562 47.252H63.7962L61.8502 54H60.0582L59.0782 50.57C59.0222 50.4393 58.9755 50.2713 58.9382 50.066H58.7142C58.6768 50.234 58.6348 50.402 58.5882 50.57L57.5942 54H55.8022L53.8562 47.252ZM67.2747 54.168C66.3601 54.168 65.6367 53.9533 65.1047 53.524C64.5821 53.0947 64.2974 52.544 64.2507 51.872H65.8187C65.8654 52.152 66.0194 52.3807 66.2807 52.558C66.5421 52.7353 66.8827 52.824 67.3027 52.824C67.7601 52.824 68.0961 52.7447 68.3107 52.586C68.5347 52.4273 68.6467 52.2173 68.6467 51.956C68.6467 51.704 68.5674 51.5267 68.4087 51.424C68.2501 51.3213 68.0121 51.256 67.6947 51.228L66.5327 51.116C65.1514 50.976 64.4607 50.3553 64.4607 49.254C64.4607 48.61 64.7127 48.0873 65.2167 47.686C65.7207 47.2847 66.3927 47.084 67.2327 47.084C68.0727 47.084 68.7261 47.266 69.1927 47.63C69.6594 47.994 69.9161 48.498 69.9627 49.142H68.4647C68.4274 48.918 68.2967 48.736 68.0727 48.596C67.8581 48.456 67.5734 48.386 67.2187 48.386C66.8547 48.386 66.5607 48.456 66.3367 48.596C66.1221 48.7267 66.0147 48.9227 66.0147 49.184C66.0147 49.408 66.1081 49.576 66.2947 49.688C66.4814 49.8 66.7707 49.87 67.1627 49.898L68.1707 49.996C68.8334 50.052 69.3374 50.2293 69.6827 50.528C70.0281 50.8173 70.2007 51.2747 70.2007 51.9C70.2007 52.5907 69.9441 53.1413 69.4307 53.552C68.9174 53.9627 68.1987 54.168 67.2747 54.168Z" fill="white"/>
<path d="M32.9688 18.8317L41.1421 17.722L41.1457 25.5816L32.9762 25.6279L32.9688 18.8317ZM41.1382 26.4871L41.1446 34.3536L32.9751 33.2338L32.9746 26.4344L41.1382 26.4871ZM42.129 17.5768L52.9662 16V25.4816L42.129 25.5674V17.5768ZM52.9688 26.5611L52.9662 36L42.129 34.4752L42.1138 26.5434L52.9688 26.5611Z" fill="white"/>
</svg>
