<svg width="83" height="69" viewBox="0 0 83 69" fill="none" xmlns="http://www.w3.org/2000/svg">
<path d="M12.6407 44.2H14.3347L16.0147 51.564C16.0707 51.7973 16.108 52.0353 16.1267 52.278H16.3507C16.388 51.942 16.4254 51.704 16.4627 51.564L18.3107 44.2H19.9347L21.7827 51.564C21.8387 51.7973 21.876 52.0353 21.8947 52.278H22.1187C22.156 51.942 22.1934 51.704 22.2307 51.564L23.9107 44.2H25.6047L23.1827 54H20.8167L19.4027 48.344C19.328 48.0173 19.272 47.6487 19.2347 47.238H19.0107C18.9734 47.6487 18.9174 48.0173 18.8427 48.344L17.4287 54H15.0627L12.6407 44.2ZM26.5659 44.284H28.2459V45.95H26.5659V44.284ZM26.6359 47.252H28.1899V54H26.6359V47.252ZM29.7104 47.252H31.2644V48.05H31.4884C31.6471 47.7793 31.8991 47.5507 32.2444 47.364C32.5898 47.1773 33.0051 47.084 33.4904 47.084C34.1998 47.084 34.7924 47.2987 35.2684 47.728C35.7444 48.148 35.9824 48.7967 35.9824 49.674V54H34.4284V50.164C34.4284 49.6507 34.2884 49.268 34.0084 49.016C33.7378 48.7547 33.3831 48.624 32.9444 48.624C32.4124 48.624 31.9971 48.792 31.6984 49.128C31.4091 49.464 31.2644 49.9213 31.2644 50.5V54H29.7104V47.252ZM40.25 54.168C39.718 54.168 39.2187 54.0373 38.752 53.776C38.2947 53.5053 37.9213 53.1087 37.632 52.586C37.352 52.054 37.212 51.4147 37.212 50.668C37.212 49.8933 37.3613 49.2353 37.66 48.694C37.9587 48.1527 38.346 47.7513 38.822 47.49C39.3073 47.2193 39.8207 47.084 40.362 47.084C40.7727 47.084 41.1693 47.1633 41.552 47.322C41.944 47.4807 42.2753 47.728 42.546 48.064V43.92H44.1V54H42.546V53.118H42.336C42.112 53.4727 41.8133 53.7387 41.44 53.916C41.076 54.084 40.6793 54.168 40.25 54.168ZM40.67 52.712C41.1927 52.712 41.636 52.5347 42 52.18C42.364 51.8253 42.546 51.3073 42.546 50.626C42.546 49.9447 42.364 49.4267 42 49.072C41.636 48.7173 41.1927 48.54 40.67 48.54C40.1473 48.54 39.6993 48.7173 39.326 49.072C38.962 49.4173 38.78 49.9353 38.78 50.626C38.78 51.3167 38.962 51.8393 39.326 52.194C39.6993 52.5393 40.1473 52.712 40.67 52.712ZM48.9011 54.168C48.2105 54.168 47.5991 54.0093 47.0671 53.692C46.5445 53.3747 46.1385 52.95 45.8491 52.418C45.5598 51.8767 45.4151 51.2793 45.4151 50.626C45.4151 49.9727 45.5598 49.38 45.8491 48.848C46.1385 48.3067 46.5445 47.8773 47.0671 47.56C47.5991 47.2427 48.2105 47.084 48.9011 47.084C49.5918 47.084 50.2031 47.2427 50.7351 47.56C51.2671 47.8773 51.6778 48.3067 51.9671 48.848C52.2565 49.38 52.4011 49.9727 52.4011 50.626C52.4011 51.2793 52.2565 51.8767 51.9671 52.418C51.6778 52.95 51.2671 53.3747 50.7351 53.692C50.2031 54.0093 49.5918 54.168 48.9011 54.168ZM48.9011 52.712C49.4425 52.712 49.8998 52.5253 50.2731 52.152C50.6465 51.7693 50.8331 51.2607 50.8331 50.626C50.8331 49.9913 50.6465 49.4873 50.2731 49.114C49.8998 48.7313 49.4425 48.54 48.9011 48.54C48.3598 48.54 47.9025 48.7313 47.5291 49.114C47.1558 49.4873 46.9691 49.9913 46.9691 50.626C46.9691 51.2607 47.1558 51.7693 47.5291 52.152C47.9025 52.5253 48.3598 52.712 48.9011 52.712ZM52.8874 47.252H54.4274L55.4914 51.284C55.5661 51.5453 55.6268 51.844 55.6734 52.18H55.8974C55.9441 51.9 56.0048 51.6013 56.0794 51.284L57.1854 47.252H58.5434L59.6354 51.284C59.7101 51.5453 59.7708 51.844 59.8174 52.18H60.0414C60.0694 51.9933 60.1301 51.6947 60.2234 51.284L61.2874 47.252H62.8274L60.8814 54H59.0894L58.1094 50.57C58.0534 50.4393 58.0068 50.2713 57.9694 50.066H57.7454C57.7081 50.234 57.6661 50.402 57.6194 50.57L56.6254 54H54.8334L52.8874 47.252ZM66.306 54.168C65.3913 54.168 64.668 53.9533 64.136 53.524C63.6133 53.0947 63.3287 52.544 63.282 51.872H64.85C64.8967 52.152 65.0507 52.3807 65.312 52.558C65.5733 52.7353 65.914 52.824 66.334 52.824C66.7913 52.824 67.1273 52.7447 67.342 52.586C67.566 52.4273 67.678 52.2173 67.678 51.956C67.678 51.704 67.5987 51.5267 67.44 51.424C67.2813 51.3213 67.0433 51.256 66.726 51.228L65.564 51.116C64.1827 50.976 63.492 50.3553 63.492 49.254C63.492 48.61 63.744 48.0873 64.248 47.686C64.752 47.2847 65.424 47.084 66.264 47.084C67.104 47.084 67.7573 47.266 68.224 47.63C68.6907 47.994 68.9473 48.498 68.994 49.142H67.496C67.4587 48.918 67.328 48.736 67.104 48.596C66.8893 48.456 66.6047 48.386 66.25 48.386C65.886 48.386 65.592 48.456 65.368 48.596C65.1533 48.7267 65.046 48.9227 65.046 49.184C65.046 49.408 65.1393 49.576 65.326 49.688C65.5127 49.8 65.802 49.87 66.194 49.898L67.202 49.996C67.8647 50.052 68.3687 50.2293 68.714 50.528C69.0593 50.8173 69.232 51.2747 69.232 51.9C69.232 52.5907 68.9753 53.1413 68.462 53.552C67.9487 53.9627 67.23 54.168 66.306 54.168Z" fill="#00A88E"/>
<path d="M32 18.8317L40.1734 17.722L40.1769 25.5816L32.0075 25.6279L32 18.8317ZM40.1695 26.4871L40.1758 34.3536L32.0063 33.2338L32.0059 26.4344L40.1695 26.4871ZM41.1603 17.5768L51.9975 16V25.4816L41.1603 25.5674V17.5768ZM52 26.5611L51.9975 36L41.1603 34.4752L41.1451 26.5434L52 26.5611Z" fill="#00A88E"/>
</svg>
