<svg width="16" height="16" viewBox="0 0 16 16" fill="none" xmlns="http://www.w3.org/2000/svg">
<path d="M6.96883 4.078C7.2753 3.0186 7.42853 2.4889 7.66474 2.35501C7.86866 2.23941 8.11831 2.23941 8.32224 2.35501C8.55845 2.4889 8.71168 3.0186 9.01814 4.078L9.41822 5.46103C9.50065 5.74598 9.54187 5.88845 9.62589 5.99275C9.70003 6.08478 9.7973 6.15546 9.90774 6.19753C10.0329 6.2452 10.1811 6.24038 10.4776 6.23072L11.9166 6.18384C13.0188 6.14793 13.57 6.12997 13.7703 6.31325C13.9432 6.47147 14.0204 6.7089 13.9735 6.93857C13.9191 7.20459 13.4627 7.51401 12.5498 8.13285L11.3581 8.94072C11.1126 9.10717 10.9899 9.1904 10.9166 9.30254C10.852 9.40149 10.8148 9.51584 10.809 9.63387C10.8023 9.76764 10.8527 9.90713 10.9535 10.1861L11.4427 11.5402C11.8175 12.5774 12.0049 13.096 11.8925 13.3431C11.7955 13.5565 11.5935 13.7033 11.3606 13.7296C11.0908 13.7601 10.6555 13.4217 9.78482 12.7447L8.64822 11.861C8.41405 11.6789 8.29696 11.5879 8.16768 11.5529C8.0536 11.522 7.93337 11.522 7.8193 11.5529C7.69001 11.5879 7.57293 11.6789 7.33875 11.861L6.20216 12.7447C5.33152 13.4217 4.8962 13.7601 4.62641 13.7296C4.39348 13.7033 4.19151 13.5565 4.09448 13.3431C3.98208 13.096 4.16946 12.5774 4.54423 11.5402L5.03348 10.1861C5.13428 9.90713 5.18468 9.76764 5.17801 9.63387C5.17213 9.51584 5.13498 9.40149 5.07036 9.30254C4.99712 9.1904 4.87436 9.10717 4.62883 8.94073L3.43713 8.13285C2.52428 7.51401 2.06785 7.20459 2.01351 6.93857C1.96659 6.7089 2.04373 6.47147 2.21669 6.31325C2.41702 6.12997 2.96814 6.14793 4.0704 6.18384L5.50936 6.23072C5.80584 6.24038 5.95408 6.2452 6.07924 6.19753C6.18968 6.15546 6.28695 6.08478 6.36108 5.99275C6.44511 5.88845 6.48632 5.74598 6.56875 5.46103L6.96883 4.078Z" fill="#FFE810"/>
</svg>
